<mxfile host="app.diagrams.net" agent="Mozilla/5.0 (Windows NT 10.0; Win64; x64) AppleWebKit/537.36 (KHTML, like Gecko) Chrome/136.0.0.0 Safari/537.36 Edg/136.0.0.0" version="27.0.3">
  <diagram name="Trang-1" id="Le1C5m4QiOo6eZQdk0P8">
    <mxGraphModel dx="400" dy="606" grid="1" gridSize="10" guides="1" tooltips="1" connect="1" arrows="1" fold="1" page="1" pageScale="1" pageWidth="827" pageHeight="1169" math="0" shadow="0">
      <root>
        <mxCell id="0" />
        <mxCell id="1" parent="0" />
        <mxCell id="JyzjVMO0i6AnRrk103GR-5" style="edgeStyle=orthogonalEdgeStyle;rounded=0;orthogonalLoop=1;jettySize=auto;html=1;" edge="1" parent="1" source="JyzjVMO0i6AnRrk103GR-1" target="JyzjVMO0i6AnRrk103GR-2">
          <mxGeometry relative="1" as="geometry" />
        </mxCell>
        <mxCell id="JyzjVMO0i6AnRrk103GR-1" value="Admin" style="shape=umlActor;verticalLabelPosition=bottom;verticalAlign=top;html=1;outlineConnect=0;" vertex="1" parent="1">
          <mxGeometry x="911" y="310" width="40" height="80" as="geometry" />
        </mxCell>
        <mxCell id="JyzjVMO0i6AnRrk103GR-27" style="edgeStyle=orthogonalEdgeStyle;rounded=0;orthogonalLoop=1;jettySize=auto;html=1;" edge="1" parent="1" source="JyzjVMO0i6AnRrk103GR-2" target="JyzjVMO0i6AnRrk103GR-26">
          <mxGeometry relative="1" as="geometry" />
        </mxCell>
        <mxCell id="JyzjVMO0i6AnRrk103GR-40" style="edgeStyle=orthogonalEdgeStyle;rounded=0;orthogonalLoop=1;jettySize=auto;html=1;" edge="1" parent="1" source="JyzjVMO0i6AnRrk103GR-2" target="JyzjVMO0i6AnRrk103GR-1">
          <mxGeometry relative="1" as="geometry">
            <Array as="points">
              <mxPoint x="1241" y="480" />
              <mxPoint x="931" y="480" />
            </Array>
          </mxGeometry>
        </mxCell>
        <mxCell id="JyzjVMO0i6AnRrk103GR-2" value="System" style="ellipse;whiteSpace=wrap;html=1;" vertex="1" parent="1">
          <mxGeometry x="1181" y="310" width="120" height="80" as="geometry" />
        </mxCell>
        <mxCell id="JyzjVMO0i6AnRrk103GR-14" style="rounded=0;orthogonalLoop=1;jettySize=auto;html=1;exitX=0;exitY=0.5;exitDx=0;exitDy=0;" edge="1" parent="1" source="JyzjVMO0i6AnRrk103GR-3" target="JyzjVMO0i6AnRrk103GR-2">
          <mxGeometry relative="1" as="geometry" />
        </mxCell>
        <mxCell id="JyzjVMO0i6AnRrk103GR-3" value="Database" style="shape=cylinder;whiteSpace=wrap;html=1;" vertex="1" parent="1">
          <mxGeometry x="1391" y="490" width="80" height="80" as="geometry" />
        </mxCell>
        <mxCell id="JyzjVMO0i6AnRrk103GR-6" value="1" style="text;html=1;align=center;verticalAlign=middle;resizable=0;points=[];autosize=1;strokeColor=none;fillColor=none;" vertex="1" parent="1">
          <mxGeometry x="966" y="328" width="30" height="30" as="geometry" />
        </mxCell>
        <mxCell id="JyzjVMO0i6AnRrk103GR-7" value="Gửi yêu cầu thay đổi" style="text;html=1;align=center;verticalAlign=middle;resizable=0;points=[];autosize=1;strokeColor=none;fillColor=none;" vertex="1" parent="1">
          <mxGeometry x="991" y="320" width="130" height="30" as="geometry" />
        </mxCell>
        <mxCell id="JyzjVMO0i6AnRrk103GR-8" value="" style="endArrow=classic;html=1;rounded=0;entryX=0.56;entryY=-0.027;entryDx=0;entryDy=0;entryPerimeter=0;" edge="1" parent="1" target="JyzjVMO0i6AnRrk103GR-7">
          <mxGeometry width="50" height="50" relative="1" as="geometry">
            <mxPoint x="1011" y="320" as="sourcePoint" />
            <mxPoint x="1061" y="270" as="targetPoint" />
          </mxGeometry>
        </mxCell>
        <mxCell id="JyzjVMO0i6AnRrk103GR-29" style="edgeStyle=orthogonalEdgeStyle;rounded=0;orthogonalLoop=1;jettySize=auto;html=1;entryX=1;entryY=0.5;entryDx=0;entryDy=0;" edge="1" parent="1" source="JyzjVMO0i6AnRrk103GR-26" target="JyzjVMO0i6AnRrk103GR-3">
          <mxGeometry relative="1" as="geometry">
            <Array as="points">
              <mxPoint x="1546" y="530" />
            </Array>
          </mxGeometry>
        </mxCell>
        <mxCell id="JyzjVMO0i6AnRrk103GR-26" value="Kiểm tra ràng buộc" style="rhombus;whiteSpace=wrap;html=1;" vertex="1" parent="1">
          <mxGeometry x="1501" y="310" width="90" height="80" as="geometry" />
        </mxCell>
        <mxCell id="JyzjVMO0i6AnRrk103GR-28" style="edgeStyle=orthogonalEdgeStyle;rounded=0;orthogonalLoop=1;jettySize=auto;html=1;entryX=0.5;entryY=0;entryDx=0;entryDy=0;entryPerimeter=0;exitX=0.5;exitY=0;exitDx=0;exitDy=0;" edge="1" parent="1" source="JyzjVMO0i6AnRrk103GR-26">
          <mxGeometry relative="1" as="geometry">
            <mxPoint x="1546" y="310" as="sourcePoint" />
            <mxPoint x="936" y="310" as="targetPoint" />
            <Array as="points">
              <mxPoint x="1546" y="240" />
              <mxPoint x="936" y="240" />
            </Array>
          </mxGeometry>
        </mxCell>
        <mxCell id="JyzjVMO0i6AnRrk103GR-30" value="2" style="text;html=1;align=center;verticalAlign=middle;resizable=0;points=[];autosize=1;strokeColor=none;fillColor=none;" vertex="1" parent="1">
          <mxGeometry x="1321" y="328" width="30" height="30" as="geometry" />
        </mxCell>
        <mxCell id="JyzjVMO0i6AnRrk103GR-31" value="3" style="text;html=1;align=center;verticalAlign=middle;resizable=0;points=[];autosize=1;strokeColor=none;fillColor=none;" vertex="1" parent="1">
          <mxGeometry x="1516" y="268" width="30" height="30" as="geometry" />
        </mxCell>
        <mxCell id="JyzjVMO0i6AnRrk103GR-32" value="Loại Sp đã tồn tại" style="text;html=1;align=center;verticalAlign=middle;resizable=0;points=[];autosize=1;strokeColor=none;fillColor=none;" vertex="1" parent="1">
          <mxGeometry x="1181" y="210" width="120" height="30" as="geometry" />
        </mxCell>
        <mxCell id="JyzjVMO0i6AnRrk103GR-33" value="" style="endArrow=classic;html=1;rounded=0;entryX=0;entryY=-0.027;entryDx=0;entryDy=0;entryPerimeter=0;" edge="1" parent="1">
          <mxGeometry width="50" height="50" relative="1" as="geometry">
            <mxPoint x="1280" y="210.81" as="sourcePoint" />
            <mxPoint x="1201" y="210.00000000000006" as="targetPoint" />
          </mxGeometry>
        </mxCell>
        <mxCell id="JyzjVMO0i6AnRrk103GR-34" value="4" style="text;html=1;align=center;verticalAlign=middle;resizable=0;points=[];autosize=1;strokeColor=none;fillColor=none;" vertex="1" parent="1">
          <mxGeometry x="1545" y="388" width="30" height="30" as="geometry" />
        </mxCell>
        <mxCell id="JyzjVMO0i6AnRrk103GR-37" value="Lưu thay đổi" style="text;html=1;align=center;verticalAlign=middle;resizable=0;points=[];autosize=1;strokeColor=none;fillColor=none;" vertex="1" parent="1">
          <mxGeometry x="1456" y="410" width="90" height="30" as="geometry" />
        </mxCell>
        <mxCell id="JyzjVMO0i6AnRrk103GR-38" value="5" style="text;html=1;align=center;verticalAlign=middle;resizable=0;points=[];autosize=1;strokeColor=none;fillColor=none;" vertex="1" parent="1">
          <mxGeometry x="1361" y="510" width="30" height="30" as="geometry" />
        </mxCell>
        <mxCell id="JyzjVMO0i6AnRrk103GR-39" value="Trả kết quả kiểm tra" style="text;html=1;align=center;verticalAlign=middle;resizable=0;points=[];autosize=1;strokeColor=none;fillColor=none;rotation=45;" vertex="1" parent="1">
          <mxGeometry x="1280" y="430" width="130" height="30" as="geometry" />
        </mxCell>
        <mxCell id="JyzjVMO0i6AnRrk103GR-41" value="6" style="text;html=1;align=center;verticalAlign=middle;resizable=0;points=[];autosize=1;strokeColor=none;fillColor=none;" vertex="1" parent="1">
          <mxGeometry x="1215" y="388" width="30" height="30" as="geometry" />
        </mxCell>
        <mxCell id="JyzjVMO0i6AnRrk103GR-42" value="Thông báo" style="text;html=1;align=center;verticalAlign=middle;resizable=0;points=[];autosize=1;strokeColor=none;fillColor=none;" vertex="1" parent="1">
          <mxGeometry x="1020" y="450" width="80" height="30" as="geometry" />
        </mxCell>
      </root>
    </mxGraphModel>
  </diagram>
</mxfile>
